PathFileType	4	(X/Y/Z)	RBDS04static.trc
DataRate	CameraRate	NumFrames	NumMarkers	Units	OrigDataRate	OrigDataStartFrame	OrigNumFrames
150.000000	150.000000	4	48	mm	150.000000	56	150
Frame#	Time	L.Ankle			L.Ankle.Medial			L.ASIS			L.GTR			L.Heel.Bottom			L.Heel.Lateral			L.Heel.Top			L.HF			L.Iliac.Crest			L.Knee			L.Knee.Medial			L.MT1			L.MT2			L.MT5			L.PSIS			L.Shank.Bottom.Lateral			L.Shank.Bottom.Medial			L.Shank.Top.Lateral			L.Shank.Top.Medial			L.Thigh.Bottom.Lateral			L.Thigh.Bottom.Medial			L.Thigh.Top.Lateral			L.Thigh.Top.Medial			L.TT			R.Ankle			R.Ankle.Medial			R.ASIS			R.GTR			R.Heel.Bottom			R.Heel.Lateral			R.Heel.Top			R.HF			R.Iliac.Crest			R.Knee			R.Knee.Medial			R.MT1			R.MT2			R.MT5			R.PSIS			R.Shank.Bottom.Lateral			R.Shank.Bottom.Medial			R.Shank.Top.Lateral			R.Shank.Top.Medial			R.Thigh.Bottom.Lateral			R.Thigh.Bottom.Medial			R.Thigh.Top.Lateral			R.Thigh.Top.Medial			R.TT			
		X1	Y1	Z1	X2	Y2	Z2	X3	Y3	Z3	X4	Y4	Z4	X5	Y5	Z5	X6	Y6	Z6	X7	Y7	Z7	X8	Y8	Z8	X9	Y9	Z9	X10	Y10	Z10	X11	Y11	Z11	X12	Y12	Z12	X13	Y13	Z13	X14	Y14	Z14	X15	Y15	Z15	X16	Y16	Z16	X17	Y17	Z17	X18	Y18	Z18	X19	Y19	Z19	X20	Y20	Z20	X21	Y21	Z21	X22	Y22	Z22	X23	Y23	Z23	X24	Y24	Z24	X25	Y25	Z25	X26	Y26	Z26	X27	Y27	Z27	X28	Y28	Z28	X29	Y29	Z29	X30	Y30	Z30	X31	Y31	Z31	X32	Y32	Z32	X33	Y33	Z33	X34	Y34	Z34	X35	Y35	Z35	X36	Y36	Z36	X37	Y37	Z37	X38	Y38	Z38	X39	Y39	Z39	X40	Y40	Z40	X41	Y41	Z41	X42	Y42	Z42	X43	Y43	Z43	X44	Y44	Z44	X45	Y45	Z45	X46	Y46	Z46	X47	Y47	Z47	X48	Y48	Z48	

57	0.3733333333333334	694.0811157226563	100.7969741821289	1055.106689453125	715.2340698242188	105.0715255737305	1134.236572265625	837.0548706054688	977.9893188476563	1131.502685546875	746.6068725585938	896.482421875	1063.850830078125	629.6577758789063	38.8374137878418	1086.59375	662.3947143554688	58.43224334716797	1046.56640625	638.5715942382813	85.59580993652344	1087.611694335938	700.4821166992188	451.3405456542969	1050.341430664063	761.6393432617188	1039.547607421875	1086.144409179688	710.736083984375	516.6986083984375	1056.67626953125	703.1290893554688	504.940673828125	1170.811401367188	842.7850952148438	61.41554641723633	1129.273803710938	841.7272338867188	65.90017700195313	1081.748291015625	816.4957885742188	49.6518440246582	1028.266845703125	668.5211791992188	1000.789489746094	1188.846313476563	695.770263671875	184.4557189941406	1047.503540039063	652.7701416015625	179.3915100097656	1074.3642578125	686.23388671875	264.1971740722656	1038.489624023438	641.3281860351563	263.4212036132813	1067.51806640625	728.1585693359375	632.5046997070313	1043.025390625	665.9202270507813	634.8373413085938	1081.758544921875	726.739990234375	743.065673828125	1041.899780273438	670.8623046875	745.1271362304688	1082.852661132813	750.2816772460938	430.4928588867188	1097.823974609375	692.6823120117188	95.83669281005859	1398.928588867188	714.662109375	110.9849243164063	1320.513427734375	831.9805908203125	975.2330322265625	1335.359252929688	763.8767700195313	893.43212890625	1400.335083007813	628.40771484375	39.15354919433594	1364.818725585938	660.2164306640625	56.42347717285156	1405.330078125	636.0099487304688	84.75733184814453	1364.5458984375	713.3411865234375	450.0613708496094	1415.450073242188	759.1607055664063	1029.237426757813	1376.327026367188	711.331787109375	526.723876953125	1405.283813476563	715.3534545898438	506.8240661621094	1291.453735351563	841.97509765625	63.38606643676758	1332.846923828125	855.735107421875	64.68199157714844	1375.319458007813	814.1721801757813	53.03103637695313	1430.349487304688	666.6492919921875	1002.312744140625	1274.197021484375	685.8464965820313	179.0657653808594	1410.028686523438	648.7886962890625	181.6129608154297	1370.065185546875	676.671630859375	258.9747009277344	1421.1220703125	642.019287109375	260.6070861816406	1379.603271484375	720.8494262695313	618.484375	1413.674926757813	664.7944946289063	618.7418823242188	1362.586303710938	714.3658447265625	728.9447021484375	1417.458129882813	663.6487426757813	728.6221923828125	1368.380859375	762.3134765625	432.7095947265625	1360.380981445313	
58	0.38	694.0692138671875	100.8037414550781	1055.118041992188	715.2459106445313	105.0516662597656	1134.243408203125	837.0584716796875	977.9921264648438	1131.520263671875	746.633544921875	896.474609375	1063.852783203125	629.654052734375	38.84444808959961	1086.588745117188	662.40673828125	58.43329238891602	1046.569702148438	638.5773315429688	85.59829711914063	1087.60107421875	700.4915161132813	451.3407287597656	1050.327270507813	761.6746826171875	1039.56982421875	1086.147583007813	710.74560546875	516.703369140625	1056.674560546875	703.13525390625	504.9404907226563	1170.800537109375	842.7757568359375	61.40055465698242	1129.29150390625	841.735107421875	65.88611602783203	1081.761352539063	816.51025390625	49.64491271972656	1028.272827148438	668.5191650390625	1000.790100097656	1188.84033203125	695.7882080078125	184.4444580078125	1047.51318359375	652.7786254882813	179.3887481689453	1074.365356445313	686.24169921875	264.1998291015625	1038.481201171875	641.5728759765625	263.1874389648438	1067.603637695313	728.169677734375	632.5040893554688	1043.031372070313	665.93212890625	634.825927734375	1081.742919921875	726.7609252929688	743.0628051757813	1041.887451171875	670.8754272460938	745.1309204101563	1082.847290039063	750.2420654296875	430.3625793457031	1097.403442382813	692.6895141601563	95.82768249511719	1398.929565429688	714.6622314453125	111.0007781982422	1320.50439453125	831.9691772460938	975.2345581054688	1335.365844726563	763.8635864257813	893.4525146484375	1400.32373046875	628.4170532226563	39.16062545776367	1364.826538085938	660.2232666015625	56.4143180847168	1405.338256835938	636.015625	84.75574493408203	1364.556274414063	713.3302612304688	450.0661926269531	1415.452758789063	759.1456909179688	1029.244384765625	1376.326049804688	711.3161010742188	526.7216186523438	1405.284423828125	715.3341064453125	506.8263244628906	1291.456909179688	841.9793701171875	63.38004302978516	1332.840576171875	855.732666015625	64.67429351806641	1375.318237304688	814.1797485351563	53.03017807006836	1430.348754882813	666.6522827148438	1002.315246582031	1274.19677734375	685.8450927734375	179.0626220703125	1410.026123046875	648.7860717773438	181.6168060302734	1370.075439453125	676.6734619140625	258.9765625	1421.1298828125	642.0103149414063	260.6106872558594	1379.598022460938	720.8310546875	618.4791259765625	1413.662109375	664.7745361328125	618.7501220703125	1362.577270507813	714.3524780273438	728.94775390625	1417.466186523438	663.6342163085938	728.6192626953125	1368.369262695313	762.2913208007813	432.7003173828125	1360.387817382813	
59	0.3866666666666667	694.0801391601563	100.8021774291992	1055.123291015625	715.2531127929688	105.0473022460938	1134.25	837.080078125	977.992919921875	1131.533569335938	746.6489868164063	896.4775390625	1063.855224609375	629.6547241210938	38.84354019165039	1086.58251953125	662.408203125	58.44028854370117	1046.572021484375	638.572998046875	85.59559631347656	1087.599609375	700.5133666992188	451.3522644042969	1050.328857421875	761.7073974609375	1039.58349609375	1086.158325195313	710.7463989257813	516.710205078125	1056.6767578125	703.1351318359375	504.9432373046875	1170.796997070313	842.7797241210938	61.38021469116211	1129.302612304688	841.7407836914063	65.88166809082031	1081.76513671875	816.5159912109375	49.63249588012695	1028.271484375	668.528564453125	1000.800903320313	1188.837158203125	695.786376953125	184.4430236816406	1047.509399414063	652.7831420898438	179.395263671875	1074.35595703125	686.2517700195313	264.2015075683594	1038.48046875	641.3339233398438	263.4251098632813	1067.516235351563	728.1895141601563	632.5093994140625	1043.020385742188	665.9357299804688	634.8282470703125	1081.743286132813	726.7769775390625	743.06298828125	1041.890380859375	670.8917846679688	745.1317138671875	1082.850952148438	750.2959594726563	430.5076599121094	1097.829956054688	692.7064819335938	95.80995178222656	1398.930053710938	714.661376953125	110.9984970092773	1320.509643554688	831.9580688476563	975.2391967773438	1335.373168945313	763.8388061523438	893.4613037109375	1400.334350585938	628.4137573242188	39.15742874145508	1364.820068359375	660.236328125	56.40378189086914	1405.338989257813	636.018310546875	84.75713348388672	1364.551391601563	713.3108520507813	450.068115234375	1415.44287109375	759.1370239257813	1029.261108398438	1376.322265625	711.3065185546875	526.7172241210938	1405.277465820313	715.3405151367188	506.8205261230469	1291.456298828125	841.98779296875	63.37172317504883	1332.849487304688	855.7464599609375	64.66277313232422	1375.334838867188	814.1868286132813	53.02836990356445	1430.346801757813	666.6484375	1002.308898925781	1274.184204101563	685.8438110351563	179.0593872070313	1410.022827148438	648.7774658203125	181.6206970214844	1370.062255859375	676.6688232421875	258.9637756347656	1421.14306640625	642.0116577148438	260.6121826171875	1379.593627929688	720.8134765625	618.4832763671875	1413.667724609375	664.7517700195313	618.7511596679688	1362.578735351563	714.3230590820313	728.9505615234375	1417.461059570313	663.6157836914063	728.6273803710938	1368.373413085938	762.2874145507813	432.7112121582031	1360.397583007813	
60	0.3933333333333334	694.07470703125	100.8021697998047	1055.108032226563	715.2490234375	105.040771484375	1134.244995117188	837.0879516601563	977.9909057617188	1131.556884765625	746.668701171875	896.4845581054688	1063.857421875	629.6571044921875	38.84421920776367	1086.587524414063	662.4049682617188	58.43947219848633	1046.56591796875	638.5765380859375	85.59348297119141	1087.606323242188	700.5081787109375	451.343994140625	1050.328125	761.7210693359375	1039.592895507813	1086.171142578125	710.7695922851563	516.7105102539063	1056.660522460938	703.1244506835938	504.9420471191406	1170.790649414063	842.7831420898438	61.37417984008789	1129.313720703125	841.7334594726563	65.87688446044922	1081.767333984375	816.5170288085938	49.63840866088867	1028.279907226563	668.535888671875	1000.798278808594	1188.826416015625	695.7901000976563	184.4425048828125	1047.513916015625	652.7855224609375	179.3935852050781	1074.358032226563	686.2567138671875	264.1992797851563	1038.476806640625	641.3433227539063	263.4220581054688	1067.50390625	728.1968383789063	632.5008544921875	1043.034912109375	665.9575805664063	634.8307495117188	1081.731079101563	726.7930908203125	743.0596923828125	1041.889526367188	670.9088745117188	745.131591796875	1082.82958984375	750.2615966796875	430.3846130371094	1097.404907226563	692.7037963867188	95.79099273681641	1398.94287109375	714.6654052734375	110.9966888427734	1320.5029296875	831.9443359375	975.247314453125	1335.405151367188	763.8318481445313	893.4495849609375	1400.339965820313	628.4115600585938	39.1534309387207	1364.814208984375	660.2452392578125	56.38816452026367	1405.3525390625	636.0266723632813	84.75191497802734	1364.552978515625	713.2982177734375	450.0681762695313	1415.43603515625	759.1224975585938	1029.27294921875	1376.320068359375	711.2879028320313	526.735107421875	1405.2744140625	715.3340454101563	506.8132019042969	1291.458862304688	841.986572265625	63.36109161376953	1332.861450195313	855.7357788085938	64.65499114990234	1375.34033203125	814.178955078125	53.02150726318359	1430.35595703125	666.64306640625	1002.307495117188	1274.168212890625	685.8400268554688	179.0638885498047	1410.024658203125	648.7796630859375	181.6187591552734	1370.050537109375	676.6668090820313	258.9547424316406	1421.149658203125	642.0071411132813	260.6099548339844	1379.5810546875	720.7974243164063	618.484130859375	1413.66845703125	664.739501953125	618.7557373046875	1362.567260742188	714.3045043945313	728.9518432617188	1417.461303710938	663.5999755859375	728.6229858398438	1368.3671875	762.2867431640625	432.7168579101563	1360.3916015625	
